{
  "asset": {
    "version": "2.0",
    "generator": "THREE.GLTFExporter r181"
  },
  "scenes": [
    {
      "name": "Scene",
      "nodes": [
        0
      ]
    }
  ],
  "scene": 0,
  "nodes": [
    {
      "name": "Gallery.glb",
      "children": [
        1,
        6,
        7,
        10,
        11,
        12,
        13,
        14,
        15,
        16,
        17,
        18,
        19,
        20,
        21,
        22,
        23,
        24
      ]
    },
    {
      "name": "Cube",
      "extras": {
        "name": "Cube"
      },
      "children": [
        2,
        3,
        4,
        5
      ]
    },
    {
      "name": "Cube001",
      "mesh": 0
    },
    {
      "name": "Cube001_1",
      "mesh": 1
    },
    {
      "name": "Cube001_2",
      "mesh": 2
    },
    {
      "name": "Cube001_3",
      "mesh": 3
    },
    {
      "matrix": [
        1,
        0,
        0,
        0,
        0,
        1,
        0,
        0,
        0,
        0,
        1,
        0,
        0,
        1.6231523752212524,
        10.930046081542969,
        1
      ],
      "name": "Camera",
      "extras": {
        "name": "Camera"
      },
      "camera": 0
    },
    {
      "name": "Cylinder",
      "extras": {
        "name": "Cylinder"
      },
      "children": [
        8,
        9
      ]
    },
    {
      "name": "Cylinder_1",
      "mesh": 4
    },
    {
      "name": "Cylinder_2",
      "mesh": 5
    },
    {
      "matrix": [
        1,
        0,
        0,
        0,
        0,
        -1.3435885648505064e-7,
        -1.0000001343588565,
        0,
        0,
        1.0000001343588565,
        -1.3435885648505064e-7,
        0,
        1.0013562440872192,
        3.3347702026367188,
        2.0027122497558594,
        1
      ],
      "name": "Point",
      "extras": {
        "name": "Point"
      },
      "extensions": {
        "KHR_lights_punctual": {
          "light": 0
        }
      }
    },
    {
      "matrix": [
        1,
        0,
        0,
        0,
        0,
        -1.3435885648505064e-7,
        -1.0000001343588565,
        0,
        0,
        1.0000001343588565,
        -1.3435885648505064e-7,
        0,
        1.0013562440872192,
        3.3347702026367188,
        1.0013561248779297,
        1
      ],
      "name": "Point001",
      "extras": {
        "name": "Point.001"
      },
      "extensions": {
        "KHR_lights_punctual": {
          "light": 1
        }
      }
    },
    {
      "matrix": [
        1,
        0,
        0,
        0,
        0,
        -1.3435885648505064e-7,
        -1.0000001343588565,
        0,
        0,
        1.0000001343588565,
        -1.3435885648505064e-7,
        0,
        1.0013562440872192,
        3.3347702026367188,
        0.002835988998413086,
        1
      ],
      "name": "Point002",
      "extras": {
        "name": "Point.002"
      },
      "extensions": {
        "KHR_lights_punctual": {
          "light": 2
        }
      }
    },
    {
      "matrix": [
        1,
        0,
        0,
        0,
        0,
        -1.3435885648505064e-7,
        -1.0000001343588565,
        0,
        0,
        1.0000001343588565,
        -1.3435885648505064e-7,
        0,
        1.0013562440872192,
        3.3347702026367188,
        -0.9956841468811035,
        1
      ],
      "name": "Point004",
      "extras": {
        "name": "Point.004"
      },
      "extensions": {
        "KHR_lights_punctual": {
          "light": 3
        }
      }
    },
    {
      "matrix": [
        1,
        0,
        0,
        0,
        0,
        -1.3435885648505064e-7,
        -1.0000001343588565,
        0,
        0,
        1.0000001343588565,
        -1.3435885648505064e-7,
        0,
        1.0013562440872192,
        3.3347702026367188,
        -1.9994795322418213,
        1
      ],
      "name": "Point005",
      "extras": {
        "name": "Point.005"
      },
      "extensions": {
        "KHR_lights_punctual": {
          "light": 4
        }
      }
    },
    {
      "matrix": [
        1,
        0,
        0,
        0,
        0,
        -1.3435885648505064e-7,
        -1.0000001343588565,
        0,
        0,
        1.0000001343588565,
        -1.3435885648505064e-7,
        0,
        1.0013562440872192,
        3.3347702026367188,
        -2.998753309249878,
        1
      ],
      "name": "Point006",
      "extras": {
        "name": "Point.006"
      },
      "extensions": {
        "KHR_lights_punctual": {
          "light": 5
        }
      }
    },
    {
      "matrix": [
        1,
        0,
        0,
        0,
        0,
        -1.3435885648505064e-7,
        -1.0000001343588565,
        0,
        0,
        1.0000001343588565,
        -1.3435885648505064e-7,
        0,
        1.0013562440872192,
        3.3347702026367188,
        -3.9980270862579346,
        1
      ],
      "name": "Point007",
      "extras": {
        "name": "Point.007"
      },
      "extensions": {
        "KHR_lights_punctual": {
          "light": 6
        }
      }
    },
    {
      "matrix": [
        1,
        0,
        0,
        0,
        0,
        -1.3435885648505064e-7,
        -1.0000001343588565,
        0,
        0,
        1.0000001343588565,
        -1.3435885648505064e-7,
        0,
        -1.0010930299758911,
        3.3347702026367188,
        2.0027122497558594,
        1
      ],
      "name": "Point008",
      "extras": {
        "name": "Point.008"
      },
      "extensions": {
        "KHR_lights_punctual": {
          "light": 7
        }
      }
    },
    {
      "matrix": [
        1,
        0,
        0,
        0,
        0,
        -1.3435885648505064e-7,
        -1.0000001343588565,
        0,
        0,
        1.0000001343588565,
        -1.3435885648505064e-7,
        0,
        -1.0010930299758911,
        3.3347702026367188,
        1.0013561248779297,
        1
      ],
      "name": "Point009",
      "extras": {
        "name": "Point.009"
      },
      "extensions": {
        "KHR_lights_punctual": {
          "light": 8
        }
      }
    },
    {
      "matrix": [
        1,
        0,
        0,
        0,
        0,
        -1.3435885648505064e-7,
        -1.0000001343588565,
        0,
        0,
        1.0000001343588565,
        -1.3435885648505064e-7,
        0,
        -1.0010930299758911,
        3.3347702026367188,
        0.002835988998413086,
        1
      ],
      "name": "Point010",
      "extras": {
        "name": "Point.010"
      },
      "extensions": {
        "KHR_lights_punctual": {
          "light": 9
        }
      }
    },
    {
      "matrix": [
        1,
        0,
        0,
        0,
        0,
        -1.3435885648505064e-7,
        -1.0000001343588565,
        0,
        0,
        1.0000001343588565,
        -1.3435885648505064e-7,
        0,
        -1.0010930299758911,
        3.3347702026367188,
        -0.9956841468811035,
        1
      ],
      "name": "Point011",
      "extras": {
        "name": "Point.011"
      },
      "extensions": {
        "KHR_lights_punctual": {
          "light": 10
        }
      }
    },
    {
      "matrix": [
        1,
        0,
        0,
        0,
        0,
        -1.3435885648505064e-7,
        -1.0000001343588565,
        0,
        0,
        1.0000001343588565,
        -1.3435885648505064e-7,
        0,
        -1.0010930299758911,
        3.3347702026367188,
        -0.9956841468811035,
        1
      ],
      "name": "Point012",
      "extras": {
        "name": "Point.012"
      },
      "extensions": {
        "KHR_lights_punctual": {
          "light": 11
        }
      }
    },
    {
      "matrix": [
        1,
        0,
        0,
        0,
        0,
        -1.3435885648505064e-7,
        -1.0000001343588565,
        0,
        0,
        1.0000001343588565,
        -1.3435885648505064e-7,
        0,
        -1.0010930299758911,
        3.3347702026367188,
        -1.9994795322418213,
        1
      ],
      "name": "Point013",
      "extras": {
        "name": "Point.013"
      },
      "extensions": {
        "KHR_lights_punctual": {
          "light": 12
        }
      }
    },
    {
      "matrix": [
        1,
        0,
        0,
        0,
        0,
        -1.3435885648505064e-7,
        -1.0000001343588565,
        0,
        0,
        1.0000001343588565,
        -1.3435885648505064e-7,
        0,
        -1.0010930299758911,
        3.3347702026367188,
        -2.998753309249878,
        1
      ],
      "name": "Point014",
      "extras": {
        "name": "Point.014"
      },
      "extensions": {
        "KHR_lights_punctual": {
          "light": 13
        }
      }
    },
    {
      "matrix": [
        1,
        0,
        0,
        0,
        0,
        -1.3435885648505064e-7,
        -1.0000001343588565,
        0,
        0,
        1.0000001343588565,
        -1.3435885648505064e-7,
        0,
        -1.0010930299758911,
        3.3347702026367188,
        -3.9980270862579346,
        1
      ],
      "name": "Point015",
      "extras": {
        "name": "Point.015"
      },
      "extensions": {
        "KHR_lights_punctual": {
          "light": 14
        }
      }
    }
  ],
  "bufferViews": [
    {
      "buffer": 0,
      "byteOffset": 0,
      "byteLength": 48,
      "target": 34962,
      "byteStride": 12
    },
    {
      "buffer": 0,
      "byteOffset": 48,
      "byteLength": 48,
      "target": 34962,
      "byteStride": 12
    },
    {
      "buffer": 0,
      "byteOffset": 96,
      "byteLength": 32,
      "target": 34962,
      "byteStride": 8
    },
    {
      "buffer": 0,
      "byteOffset": 128,
      "byteLength": 12,
      "target": 34963
    },
    {
      "buffer": 0,
      "byteOffset": 140,
      "byteLength": 48,
      "target": 34962,
      "byteStride": 12
    },
    {
      "buffer": 0,
      "byteOffset": 188,
      "byteLength": 48,
      "target": 34962,
      "byteStride": 12
    },
    {
      "buffer": 0,
      "byteOffset": 236,
      "byteLength": 32,
      "target": 34962,
      "byteStride": 8
    },
    {
      "buffer": 0,
      "byteOffset": 268,
      "byteLength": 48,
      "target": 34962,
      "byteStride": 12
    },
    {
      "buffer": 0,
      "byteOffset": 316,
      "byteLength": 48,
      "target": 34962,
      "byteStride": 12
    },
    {
      "buffer": 0,
      "byteOffset": 364,
      "byteLength": 32,
      "target": 34962,
      "byteStride": 8
    },
    {
      "buffer": 0,
      "byteOffset": 396,
      "byteLength": 12,
      "target": 34963
    },
    {
      "buffer": 0,
      "byteOffset": 408,
      "byteLength": 816,
      "target": 34962,
      "byteStride": 12
    },
    {
      "buffer": 0,
      "byteOffset": 1224,
      "byteLength": 816,
      "target": 34962,
      "byteStride": 12
    },
    {
      "buffer": 0,
      "byteOffset": 2040,
      "byteLength": 544,
      "target": 34962,
      "byteStride": 8
    },
    {
      "buffer": 0,
      "byteOffset": 2584,
      "byteLength": 204,
      "target": 34963
    },
    {
      "buffer": 0,
      "byteOffset": 2788,
      "byteLength": 22176,
      "target": 34962,
      "byteStride": 12
    },
    {
      "buffer": 0,
      "byteOffset": 24964,
      "byteLength": 22176,
      "target": 34962,
      "byteStride": 12
    },
    {
      "buffer": 0,
      "byteOffset": 47140,
      "byteLength": 14784,
      "target": 34962,
      "byteStride": 8
    },
    {
      "buffer": 0,
      "byteOffset": 61924,
      "byteLength": 6888,
      "target": 34963
    },
    {
      "buffer": 0,
      "byteOffset": 68812,
      "byteLength": 2016,
      "target": 34962,
      "byteStride": 12
    },
    {
      "buffer": 0,
      "byteOffset": 70828,
      "byteLength": 2016,
      "target": 34962,
      "byteStride": 12
    },
    {
      "buffer": 0,
      "byteOffset": 72844,
      "byteLength": 1344,
      "target": 34962,
      "byteStride": 8
    },
    {
      "buffer": 0,
      "byteOffset": 74188,
      "byteLength": 840,
      "target": 34963
    }
  ],
  "buffers": [
    {
      "byteLength": 75028,
      "uri": "data:application/octet-stream;base64,"
    }
  ],
  "accessors": [
    {
      "bufferView": 0,
      "componentType": 5126,
      "count": 4,
      "max": [
        2.879228353500366,
        3.250502347946167,
        3.6818652153015137
      ],
      "min": [
        2.879228115081787,
        0.16707512736320496,
        -5.758456707000732
      ],
      "type": "VEC3"
    },
    {
      "bufferView": 1,
      "componentType": 5126,
      "count": 4,
      "max": [
        1,
        0,
        0
      ],
      "min": [
        1,
        0,
        0
      ],
      "type": "VEC3"
    },
    {
      "bufferView": 2,
      "componentType": 5126,
      "count": 4,
      "max": [
        0.15695254504680634,
        0.9998900294303894
      ],
      "min": [
        0.00010998509969795123,
        0.6125704050064087
      ],
      "type": "VEC2"
    },
    {
      "bufferView": 3,
      "componentType": 5123,
      "count": 6,
      "max": [
        3
      ],
      "min": [
        0
      ],
      "type": "SCALAR"
    },
    {
      "bufferView": 4,
      "componentType": 5126,
      "count": 4,
      "max": [
        2.879228353500366,
        3.250502347946167,
        -5.758456230163574
      ],
      "min": [
        -2.879228353500366,
        0.16707512736320496,
        -5.758456707000732
      ],
      "type": "VEC3"
    },
    {
      "bufferView": 5,
      "componentType": 5126,
      "count": 4,
      "max": [
        0,
        0,
        -1
      ],
      "min": [
        0,
        0,
        -1
      ],
      "type": "VEC3"
    },
    {
      "bufferView": 6,
      "componentType": 5126,
      "count": 4,
      "max": [
        0.12482791393995285,
        0.619239330291748
      ],
      "min": [
        0.00010998509969795123,
        0.3806005120277405
      ],
      "type": "VEC2"
    },
    {
      "bufferView": 7,
      "componentType": 5126,
      "count": 4,
      "max": [
        -2.879228115081787,
        3.250502347946167,
        3.6818652153015137
      ],
      "min": [
        -2.879228353500366,
        0.16707512736320496,
        -5.758456707000732
      ],
      "type": "VEC3"
    },
    {
      "bufferView": 8,
      "componentType": 5126,
      "count": 4,
      "max": [
        -1,
        0,
        0
      ],
      "min": [
        -1,
        0,
        0
      ],
      "type": "VEC3"
    },
    {
      "bufferView": 9,
      "componentType": 5126,
      "count": 4,
      "max": [
        0.15695255994796753,
        0.3874930143356323
      ],
      "min": [
        0.0003311844193376601,
        0.0001099705696105957
      ],
      "type": "VEC2"
    },
    {
      "bufferView": 10,
      "componentType": 5123,
      "count": 6,
      "max": [
        3
      ],
      "min": [
        0
      ],
      "type": "SCALAR"
    },
    {
      "bufferView": 11,
      "componentType": 5126,
      "count": 68,
      "max": [
        2.879228353500366,
        3.973337411880493,
        3.6818652153015137
      ],
      "min": [
        -2.879228353500366,
        0,
        -5.758456707000732
      ],
      "type": "VEC3"
    },
    {
      "bufferView": 12,
      "componentType": 5126,
      "count": 68,
      "max": [
        1,
        1,
        0.9410772323608398
      ],
      "min": [
        -1,
        -1,
        -1
      ],
      "type": "VEC3"
    },
    {
      "bufferView": 13,
      "componentType": 5126,
      "count": 68,
      "max": [
        2.0543203353881836,
        6.565376281738281
      ],
      "min": [
        -1.2647364139556885,
        -5.555710792541504
      ],
      "type": "VEC2"
    },
    {
      "bufferView": 14,
      "componentType": 5123,
      "count": 102,
      "max": [
        67
      ],
      "min": [
        0
      ],
      "type": "SCALAR"
    },
    {
      "bufferView": 15,
      "componentType": 5126,
      "count": 1848,
      "max": [
        1.0709667205810547,
        3.9884002208709717,
        2.071777820587158
      ],
      "min": [
        -1.0709667205810547,
        3.907822608947754,
        -4.068519592285156
      ],
      "type": "VEC3"
    },
    {
      "bufferView": 16,
      "componentType": 5126,
      "count": 1848,
      "max": [
        0.965928852558136,
        1,
        0.965928852558136
      ],
      "min": [
        -0.965928852558136,
        -1,
        -0.965928852558136
      ],
      "type": "VEC3"
    },
    {
      "bufferView": 17,
      "componentType": 5126,
      "count": 1848,
      "max": [
        1,
        0.9900000095367432
      ],
      "min": [
        7.450580596923828e-8,
        0
      ],
      "type": "VEC2"
    },
    {
      "bufferView": 18,
      "componentType": 5123,
      "count": 3444,
      "max": [
        1847
      ],
      "min": [
        0
      ],
      "type": "SCALAR"
    },
    {
      "bufferView": 19,
      "componentType": 5126,
      "count": 168,
      "max": [
        1.0496838092803955,
        3.922930955886841,
        2.050495147705078
      ],
      "min": [
        -1.0496838092803955,
        3.922930955886841,
        -4.047236919403076
      ],
      "type": "VEC3"
    },
    {
      "bufferView": 20,
      "componentType": 5126,
      "count": 168,
      "max": [
        0,
        -1,
        0
      ],
      "min": [
        0,
        -1,
        0
      ],
      "type": "VEC3"
    },
    {
      "bufferView": 21,
      "componentType": 5126,
      "count": 168,
      "max": [
        0.9182102680206299,
        0.9182102680206299
      ],
      "min": [
        0.5817897915840149,
        0.5817897915840149
      ],
      "type": "VEC2"
    },
    {
      "bufferView": 22,
      "componentType": 5123,
      "count": 420,
      "max": [
        167
      ],
      "min": [
        0
      ],
      "type": "SCALAR"
    }
  ],
  "materials": [
    {
      "pbrMetallicRoughness": {
        "baseColorFactor": [
          0.8002749681472778,
          0.06566184014081955,
          0.09409366548061371,
          1
        ],
        "metallicFactor": 0,
        "roughnessFactor": 0.5
      },
      "doubleSided": true,
      "name": "WallColour_000"
    },
    {
      "pbrMetallicRoughness": {
        "baseColorFactor": [
          0,
          0.00044767046347260475,
          0.028205599635839462,
          1
        ],
        "metallicFactor": 0,
        "roughnessFactor": 0.5
      },
      "doubleSided": true,
      "name": "WallColour_001"
    },
    {
      "pbrMetallicRoughness": {
        "baseColorFactor": [
          0.8004660606384277,
          0.7751519680023193,
          0,
          1
        ],
        "metallicFactor": 0,
        "roughnessFactor": 0.5
      },
      "doubleSided": true,
      "name": "WallColour_002"
    },
    {
      "pbrMetallicRoughness": {
        "metallicFactor": 0,
        "roughnessFactor": 0.7109375,
        "baseColorTexture": {
          "index": 0,
          "texCoord": 0
        }
      },
      "doubleSided": true,
      "name": "Floor"
    },
    {
      "pbrMetallicRoughness": {
        "baseColorFactor": [
          0.008343868888914585,
          0.008343868888914585,
          0.008343868888914585,
          1
        ],
        "metallicFactor": 0,
        "roughnessFactor": 0.5
      },
      "doubleSided": true,
      "name": "Lights"
    },
    {
      "pbrMetallicRoughness": {
        "metallicFactor": 0,
        "roughnessFactor": 0.5
      },
      "emissiveFactor": [
        1,
        1,
        1
      ],
      "doubleSided": true,
      "name": "Lighting",
      "extensions": {
        "KHR_materials_emissive_strength": {
          "emissiveStrength": 50
        }
      }
    }
  ],
  "meshes": [
    {
      "primitives": [
        {
          "mode": 4,
          "attributes": {
            "POSITION": 0,
            "NORMAL": 1,
            "TEXCOORD_0": 2
          },
          "indices": 3,
          "material": 0
        }
      ]
    },
    {
      "primitives": [
        {
          "mode": 4,
          "attributes": {
            "POSITION": 4,
            "NORMAL": 5,
            "TEXCOORD_0": 6
          },
          "indices": 3,
          "material": 1
        }
      ]
    },
    {
      "primitives": [
        {
          "mode": 4,
          "attributes": {
            "POSITION": 7,
            "NORMAL": 8,
            "TEXCOORD_0": 9
          },
          "indices": 10,
          "material": 2
        }
      ]
    },
    {
      "primitives": [
        {
          "mode": 4,
          "attributes": {
            "POSITION": 11,
            "NORMAL": 12,
            "TEXCOORD_0": 13
          },
          "indices": 14,
          "material": 3
        }
      ]
    },
    {
      "primitives": [
        {
          "mode": 4,
          "attributes": {
            "POSITION": 15,
            "NORMAL": 16,
            "TEXCOORD_0": 17
          },
          "indices": 18,
          "material": 4
        }
      ]
    },
    {
      "primitives": [
        {
          "mode": 4,
          "attributes": {
            "POSITION": 19,
            "NORMAL": 20,
            "TEXCOORD_0": 21
          },
          "indices": 22,
          "material": 5
        }
      ]
    }
  ],
  "textures": [
    {
      "sampler": 0,
      "source": 0,
      "name": "LightWoodHarringbone"
    }
  ],
  "samplers": [
    {
      "magFilter": 9729,
      "minFilter": 9987,
      "wrapS": 10497,
      "wrapT": 10497
    }
  ],
  "images": [
    {
      "mimeType": "image/jpeg",
      "uri": "data:image/jpeg;base64,"
    }
  ],
  "cameras": [
    {
      "type": "perspective",
      "perspective": {
        "aspectRatio": 1.679144385026738,
        "yfov": 0.39959652046304894,
        "zfar": 1000,
        "znear": 0.10000000149011612
      },
      "name": "PerspectiveCamera"
    }
  ],
  "extensions": {
    "KHR_lights_punctual": {
      "lights": [
        {
          "name": "Point",
          "color": [
            1,
            1,
            1
          ],
          "intensity": 1,
          "type": "point"
        },
        {
          "name": "Point001",
          "color": [
            1,
            1,
            1
          ],
          "intensity": 1,
          "type": "point"
        },
        {
          "name": "Point002",
          "color": [
            1,
            1,
            1
          ],
          "intensity": 1,
          "type": "point"
        },
        {
          "name": "Point004",
          "color": [
            1,
            1,
            1
          ],
          "intensity": 1,
          "type": "point"
        },
        {
          "name": "Point005",
          "color": [
            1,
            1,
            1
          ],
          "intensity": 1,
          "type": "point"
        },
        {
          "name": "Point006",
          "color": [
            1,
            1,
            1
          ],
          "intensity": 1,
          "type": "point"
        },
        {
          "name": "Point007",
          "color": [
            1,
            1,
            1
          ],
          "intensity": 1,
          "type": "point"
        },
        {
          "name": "Point008",
          "color": [
            1,
            1,
            1
          ],
          "intensity": 1,
          "type": "point"
        },
        {
          "name": "Point009",
          "color": [
            1,
            1,
            1
          ],
          "intensity": 1,
          "type": "point"
        },
        {
          "name": "Point010",
          "color": [
            1,
            1,
            1
          ],
          "intensity": 1,
          "type": "point"
        },
        {
          "name": "Point011",
          "color": [
            1,
            1,
            1
          ],
          "intensity": 1,
          "type": "point"
        },
        {
          "name": "Point012",
          "color": [
            1,
            1,
            1
          ],
          "intensity": 1,
          "type": "point"
        },
        {
          "name": "Point013",
          "color": [
            1,
            1,
            1
          ],
          "intensity": 1,
          "type": "point"
        },
        {
          "name": "Point014",
          "color": [
            1,
            1,
            1
          ],
          "intensity": 1,
          "type": "point"
        },
        {
          "name": "Point015",
          "color": [
            1,
            1,
            1
          ],
          "intensity": 1,
          "type": "point"
        }
      ]
    }
  },
  "extensionsUsed": [
    "KHR_materials_emissive_strength",
    "KHR_lights_punctual"
  ]
}